{
  "accessors": [
    {
      "bufferView": 2,
      "componentType": 5126,
      "count": 536,
      "max": [
        1.7626172304153442,
        1.600671648979187,
        1.4698950052261353
      ],
      "min": [
        -1.7626172304153442,
        -1.9317702054977417,
        -1.5266495943069458
      ],
      "type": "VEC3"
    },
    {
      "bufferView": 2,
      "byteOffset": 6432,
      "componentType": 5126,
      "count": 536,
      "max": [
        0.9930728077888489,
        0.9957172274589539,
        0.9896315932273865
      ],
      "min": [
        -0.9930728077888489,
        -0.9817123413085938,
        -0.213114395737648
      ],
      "type": "VEC3"
    },
    {
      "bufferView": 1,
      "componentType": 5126,
      "count": 536,
      "max": [
        0.17778781056404114,
        0.718803346157074
      ],
      "min": [
        0.0175248384475708,
        0.5585403442382813
      ],
      "type": "VEC2"
    },
    {
      "bufferView": 0,
      "componentType": 5125,
      "count": 804,
      "type": "SCALAR"
    },
    {
      "bufferView": 2,
      "byteOffset": 12864,
      "componentType": 5126,
      "count": 704,
      "max": [
        5.198698043823242,
        -13.489067077636719,
        1.5911130905151367
      ],
      "min": [
        -5.198698043823242,
        -16.526683807373047,
        -6.215704441070557
      ],
      "type": "VEC3"
    },
    {
      "bufferView": 2,
      "byteOffset": 21312,
      "componentType": 5126,
      "count": 704,
      "max": [
        0.9999359846115112,
        0.9996309876441956,
        0.9999988675117493
      ],
      "min": [
        -0.9999359846115112,
        -0.9996330142021179,
        -0.9999973773956299
      ],
      "type": "VEC3"
    },
    {
      "bufferView": 1,
      "byteOffset": 4288,
      "componentType": 5126,
      "count": 704,
      "max": [
        0.8711018562316895,
        0.9003987312316895
      ],
      "min": [
        0.12588346004486084,
        0.8200070858001709
      ],
      "type": "VEC2"
    },
    {
      "bufferView": 0,
      "byteOffset": 3216,
      "componentType": 5125,
      "count": 1056,
      "type": "SCALAR"
    },
    {
      "bufferView": 2,
      "byteOffset": 29760,
      "componentType": 5126,
      "count": 11516,
      "max": [
        19.6873836517334,
        5.494396686553955,
        2.61902117729187
      ],
      "min": [
        -19.6873836517334,
        -44.9893798828125,
        -6.090258598327637
      ],
      "type": "VEC3"
    },
    {
      "bufferView": 2,
      "byteOffset": 167952,
      "componentType": 5126,
      "count": 11516,
      "max": [
        0.9997236728668213,
        0.9999926090240479,
        0.9998965263366699
      ],
      "min": [
        -0.9997236728668213,
        -0.9994338154792786,
        -0.999442994594574
      ],
      "type": "VEC3"
    },
    {
      "bufferView": 1,
      "byteOffset": 9920,
      "componentType": 5126,
      "count": 11516,
      "max": [
        0.910968005657196,
        0.9362393021583557
      ],
      "min": [
        0.057780444622039795,
        0.5109641551971436
      ],
      "type": "VEC2"
    },
    {
      "bufferView": 0,
      "byteOffset": 7440,
      "componentType": 5125,
      "count": 16560,
      "type": "SCALAR"
    }
  ],
  "asset": {
    "extras": {
      "author": "lmmfs.1998 (https://sketchfab.com/lmmfs.1998)",
      "license": "CC-BY-4.0 (http://creativecommons.org/licenses/by/4.0/)",
      "source": "https://sketchfab.com/3d-models/the-batman-40b3ef186877492e80ae5a959613ab71",
      "title": "The Batman"
    },
    "generator": "Sketchfab-12.67.0",
    "version": "2.0"
  },
  "bufferViews": [
    {
      "buffer": 0,
      "byteLength": 73680,
      "name": "floatBufferViews",
      "target": 34963
    },
    {
      "buffer": 0,
      "byteLength": 102048,
      "byteOffset": 73680,
      "byteStride": 8,
      "name": "floatBufferViews",
      "target": 34962
    },
    {
      "buffer": 0,
      "byteLength": 306144,
      "byteOffset": 175728,
      "byteStride": 12,
      "name": "floatBufferViews",
      "target": 34962
    }
  ],
  "buffers": [
    {
      "byteLength": 481872,
      "uri": "scene.bin"
    }
  ],
  "images": [
    {
      "uri": "textures/Batman_baseColor.png"
    }
  ],
  "materials": [
    {
      "doubleSided": true,
      "name": "Batman",
      "pbrMetallicRoughness": {
        "baseColorTexture": {
          "index": 0
        },
        "metallicFactor": 0.0,
        "roughnessFactor": 0.8858419065
      }
    }
  ],
  "meshes": [
    {
      "name": "Face_Batman_0",
      "primitives": [
        {
          "attributes": {
            "NORMAL": 1,
            "POSITION": 0,
            "TEXCOORD_0": 2
          },
          "indices": 3,
          "material": 0,
          "mode": 4
        }
      ]
    },
    {
      "name": "Belt_Batman_0",
      "primitives": [
        {
          "attributes": {
            "NORMAL": 5,
            "POSITION": 4,
            "TEXCOORD_0": 6
          },
          "indices": 7,
          "material": 0,
          "mode": 4
        }
      ]
    },
    {
      "name": "Armor_Batman_0",
      "primitives": [
        {
          "attributes": {
            "NORMAL": 9,
            "POSITION": 8,
            "TEXCOORD_0": 10
          },
          "indices": 11,
          "material": 0,
          "mode": 4
        }
      ]
    }
  ],
  "nodes": [
    {
      "children": [
        1
      ],
      "matrix": [
        1.0,
        0.0,
        0.0,
        0.0,
        0.0,
        2.220446049250313e-16,
        -1.0,
        0.0,
        0.0,
        1.0,
        2.220446049250313e-16,
        0.0,
        0.0,
        0.0,
        0.0,
        1.0
      ],
      "name": "Sketchfab_model"
    },
    {
      "children": [
        2
      ],
      "matrix": [
        1.0,
        0.0,
        0.0,
        0.0,
        0.0,
        0.0,
        1.0,
        0.0,
        0.0,
        -1.0,
        0.0,
        0.0,
        0.0,
        0.0,
        0.0,
        1.0
      ],
      "name": "70e245ed0b9640c6ad353f6b5d74c4b9.fbx"
    },
    {
      "children": [
        3,
        5,
        7
      ],
      "name": "RootNode"
    },
    {
      "children": [
        4
      ],
      "matrix": [
        3.9919495582580566,
        0.0,
        0.0,
        0.0,
        0.0,
        3.9919495582580526,
        1.7449364297983604e-07,
        0.0,
        0.0,
        -1.7449364297983604e-07,
        3.9919495582580526,
        0.0,
        0.0,
        179.47654724121094,
        11.24559497833252,
        1.0
      ],
      "name": "Face"
    },
    {
      "mesh": 0,
      "name": "Face_Batman_0"
    },
    {
      "children": [
        6
      ],
      "matrix": [
        3.9919495582580566,
        0.0,
        0.0,
        0.0,
        0.0,
        3.9919495582580526,
        1.7449364297983604e-07,
        0.0,
        0.0,
        -1.7449364297983604e-07,
        3.9919495582580526,
        0.0,
        0.0,
        176.25137329101563,
        14.318392753601074,
        1.0
      ],
      "name": "Belt"
    },
    {
      "mesh": 1,
      "name": "Belt_Batman_0"
    },
    {
      "children": [
        8
      ],
      "matrix": [
        3.9919495582580566,
        0.0,
        0.0,
        0.0,
        0.0,
        3.9919495582580526,
        1.7449364297983604e-07,
        0.0,
        0.0,
        -1.7449364297983604e-07,
        3.9919495582580526,
        0.0,
        0.0,
        179.47654724121094,
        11.24559497833252,
        1.0
      ],
      "name": "Armor"
    },
    {
      "mesh": 2,
      "name": "Armor_Batman_0"
    }
  ],
  "samplers": [
    {
      "magFilter": 9729,
      "minFilter": 9987,
      "wrapS": 10497,
      "wrapT": 10497
    }
  ],
  "scene": 0,
  "scenes": [
    {
      "name": "Sketchfab_Scene",
      "nodes": [
        0
      ]
    }
  ],
  "textures": [
    {
      "sampler": 0,
      "source": 0
    }
  ]
}
